<?xml version="1.0" encoding="UTF-8" standalone="no"?>
<!-- Created with Inkscape (http://www.inkscape.org/) -->

<svg
   version="1.1"
   id="svg1"
   width="1280"
   height="320"
   viewBox="0 0 1280 320"
   sodipodi:docname="Gestiona-PANTONE (1).eps"
   xmlns:inkscape="http://www.inkscape.org/namespaces/inkscape"
   xmlns:sodipodi="http://sodipodi.sourceforge.net/DTD/sodipodi-0.dtd"
   xmlns="http://www.w3.org/2000/svg"
   xmlns:svg="http://www.w3.org/2000/svg">
  <defs
     id="defs1" />
  <sodipodi:namedview
     id="namedview1"
     pagecolor="#ffffff"
     bordercolor="#000000"
     borderopacity="0.25"
     inkscape:showpageshadow="2"
     inkscape:pageopacity="0.0"
     inkscape:pagecheckerboard="0"
     inkscape:deskcolor="#d1d1d1">
    <inkscape:page
       x="0"
       y="0"
       inkscape:label="1"
       id="page1"
       width="1280"
       height="320"
       margin="0"
       bleed="0" />
  </sodipodi:namedview>
  <g
     id="g1"
     inkscape:groupmode="layer"
     inkscape:label="1">
    <g
       id="group-R5">
      <path
         id="path2"
         d="m 2585,1437 134,-488 c -36,-65 -80,-125 -133,-178 l -175,635 -277,-49 136,-774 c -28,-8 -56,-15 -86,-20 -29,-5 -58,-8 -87,-10 l -136,774 -277,-49 53,-657 c -68,31 -130,72 -186,121 l -41,505 -208,-37 c -17,132 0,261 47,378 l 409,419 c 52,22 106,39 164,49 58,10 115,13 171,10 l 528,-254 c 83,-94 144,-209 173,-339 z m 332,86 c -15,62 -37,122 -64,178 -170,347 -554,556 -954,485 -400,-70 -690,-398 -730,-782 -7,-62 -7,-125 0,-189 2,-20 5,-40 8,-60 44,-252 191,-460 389,-589 27,-18 56,-35 85,-50 141,-72 303,-107 470,-94 29,2 58,6 87,11 29,5 58,12 86,20 161,45 301,133 409,249 22,24 43,49 63,76 142,190 208,435 163,687 -3,20 -7,39 -12,58 z m -1496,-113 1193,210 -672,324 z m 6647,-141 c -43,-2 -78,-6 -106,-11 -28,-6 -50,-12 -66,-21 -16,-8 -27,-18 -34,-28 -6,-11 -9,-22 -9,-35 0,-24 7,-42 20,-52 13,-10 33,-15 59,-15 28,0 52,5 73,15 21,10 42,25 63,47 z m -387,325 c 43,38 91,67 144,85 53,19 109,28 170,28 43,0 82,-7 117,-21 35,-14 64,-34 89,-59 25,-25 43,-55 56,-90 13,-35 19,-72 19,-113 V 976 h -98 c -20,0 -36,3 -46,8 -10,5 -19,17 -26,35 l -15,39 c -18,-15 -35,-29 -52,-40 -17,-12 -34,-21 -52,-29 -18,-8 -37,-14 -57,-18 -20,-4 -42,-6 -67,-6 -33,0 -63,4 -89,13 -27,9 -49,21 -68,38 -19,17 -33,37 -43,62 -10,25 -15,53 -15,85 0,26 6,52 19,79 13,27 35,51 67,73 32,22 75,40 129,55 54,15 122,23 204,25 v 30 c 0,42 -9,72 -25.99,91 -17.01,19 -42.01,28 -74.01,28 -25,0 -45.99,-3 -62,-8 -16,-6 -31,-12 -43,-19 -13,-7 -25,-13 -37,-19 -12,-6 -26,-8 -43,-8 -15,0 -27,4 -37,11 -10,7 -18,16 -25,26 z m -540,23 c 14,13 28,25 43,36 15,11 31,20 47,28 17,8 35,14 55,18 20,4 41,7 64,7 39,0 74,-7 104,-20 30,-14 56,-33 76,-57 20,-24 36,-53 47,-87 11,-33 16,-70 16,-109 V 977 h -215 v 456 c 0,35 -8,62 -24,82 -16,20 -40,29 -71,29 -24,0 -46,-5 -66,-15 -21,-10 -40,-23 -60,-40 V 977 h -215 v 717 h 133 c 27,0 44,-12 53,-36 z m -637,-492 c 49,0 86,17 109,52 23,35 35,88 35,159 0,71 -12,124 -35,158 -23,35 -60,52 -109,52 -51,0 -88,-17 -111,-52 -23,-35 -35,-87 -35,-158 0,-71 12,-124 35,-159 23,-35 61,-52 111,-52 z m 0,580 c 54,0 104,-9 149,-26 45,-17 83,-42 115,-73 32,-32 57,-70 75,-116 18,-45 27,-97 27,-153 0,-57 -9,-109 -27,-155 -18,-46 -43,-85 -75,-117 -32,-32 -70,-57 -115,-74 -45,-17 -94,-26 -149,-26 -55,0 -105,9 -150,26 -45,17 -84,42 -116,74 -33,32 -58,71 -75,117 -18,46 -27,97 -27,155 0,57 9,108 27,153 18,45 43,84 75,116 33,32 71,56 116,73 45,18 95,26 150,26 z m -416,186 c 0,-17 -3,-33 -10,-48 -7,-15 -16,-28 -28,-40 -12,-11 -26,-20 -42,-27 -16,-6 -33,-10 -51,-10 -18,0 -34,3 -49,10 -15,6 -29,15 -40,27 -12,11 -21,25 -28,40 -7,15 -10,31 -10,48 0,17 3,33 10,49 7,15 16,29 28,40 12,11 25,20 40,27 15,7 32,10 49,10 18,0 35,-3 51,-10 16,-7 30,-16 42,-27 12,-11 21,-25 28,-40 6,-15 10,-32 10,-49 z m -30,-915 h -215 v 570 h -300 v -356 c 0,-17 4,-30 12,-41 8,-11 20,-16 35,-16 8,0 14,1 20,2 5,2 10,3 14,6 4,2 8,4 11,6 3,2 7,2 12,2 6,0 12,-2 16,-5 4,-3 8,-8 12,-14 l 65,-102 c -28,-21 -59,-36 -93,-47 -35,-10 -70,-16 -107,-16 -34,0 -64,5 -90,15 -26,10 -48,24 -66,42 -18,18 -31,40 -40,66 -9,26 -14,55 -14,87 v 371 h -61 c -11,0 -21,4 -28,11 -8,7 -12,18 -12,31 v 84 l 114,23 42,174 c 6,22 21,33 47,33 h 112 v -210 h 515 V 976 Z m -902,561 c -6,-9 -11,-15 -18,-19 -6,-4 -14,-6 -24,-6 -10,0 -20,2 -30,7 -10,4 -21,9 -33,14 -12,5 -25,10 -40,14 -15,4 -32,7 -51,7 -27,0 -48,-5 -63,-16 -15,-11 -22,-25 -22,-43 0,-13 5,-24 14,-33 9,-9 22,-17 38,-23 16,-7 33,-13 53,-19 20,-6 40,-13 61,-20 21,-7 41,-16 61,-26 20,-10 38,-22 53,-37 16,-15 28,-32 38,-53 9,-21 14,-46 14,-75 0,-36 -6,-68 -19,-98 -13,-30 -32,-56 -58,-78 -26,-22 -57,-39 -95,-51 -38,-12 -81,-18 -130,-18 -24,0 -49,2 -73,7 -24,5 -48,11 -71,19 -23,8 -44,17 -63,28 -19,11 -36,22 -50,35 l 50,79 c 6,9 13,16 21,22 9,5 19,8 33,8 12,0 24,-3 34,-8 10,-6 21,-12 32,-18 12,-6 25,-12 40,-18 15,-6 35,-8 58,-8 17,0 31,2 42,5 12,3 21,8 28,14 7,6 12,13 15,20 3,7 5,15 5,23 0,14 -5,26 -15,35 -10,9 -22,17 -38,24 -16,7 -34,13 -54,19 -20,6 -40,12 -61,20 -21,7 -41,16 -61,27 -20,11 -38,24 -54,39 -16,16 -28,35 -38,58 -10,23 -15,51 -15,84 0,30 6,59 18,87 12,27 29,52 53,72 24,20 53,37 89,49 36,12 77,18 125,18 26,0 51,-2 75,-7 24,-5 47,-11 68,-19 21,-8 41,-18 58,-29 18,-11 33,-24 46,-37 z m -721,-116 c 0,17 -2,34 -7,50 -4,16 -12,31 -21,43 -10,13 -23,23 -39,31 -16,8 -36,12 -59,12 -41,0 -72,-12 -95,-35 -23,-23 -38,-57 -46,-101 z m -270,-124 c 7,-60 25,-103 55,-130 30,-27 68,-40 114,-40 25,0 46,3 64,9 18,6 34,13 48,20 14,7 27,14 39,20 12,6 24,9 37,9 17,0 30,-6 39,-19 l 62,-77 c -22,-25 -46,-46 -72,-62 -26,-16 -52,-28 -79,-37 -27,-9 -54,-15 -81,-19 -27,-3 -53,-5 -77,-5 -50,0 -97,8 -142,25 -44,16 -83,41 -116,73 -33,32 -59,72 -78,120 -19,48 -29,104 -29,167 0,48 8,93 25,136 16,43 40,80 71,113 31,32 68,58 111,77 44,19 93,28 148,28 48,0 91,-7 130,-22 39,-15 73,-36 102,-64 28,-28 51,-63 66,-103 16,-41 24,-87 24,-139 0,-16 -1,-29 -2,-39 -1,-10 -4,-18 -8,-24 -4,-6 -9,-10 -15,-12 -6,-2 -14,-3 -24,-3 h -412 z m -596,76 c 36,0 61,9 77,27 16,18 24,41 24,69 0,29 -8,52 -24,69 -16,17 -42,25 -77,25 -36,0 -61,-8 -77,-25 -16,-17 -24,-39 -24,-69 0,-14 2,-27 6,-38 4,-12 10,-22 18,-30 8,-9 19,-15 31,-20 14,-6 29,-8 46,-8 z m 167,-423 c 0,17 -8,29 -23,37 -15,8 -35,13 -60,16 -24,3 -52,5 -82,6 -30,1 -60,2 -90,5 -13,-9 -24,-19 -33,-31 -9,-11 -13,-24 -13,-38 0,-10 2,-19 7,-28 4,-8 12,-15 23,-21 11,-6 26,-11 45,-14 19,-3 42,-5 71,-5 31,0 56,2 76,6 20,4 36,9 47,15 12,6 20,14 25,23 4,9 7,19 7,29 z m 211,722 v -78 c 0,-12 -3,-21 -10,-28 -7,-7 -18,-12 -34,-16 l -52,-12 c 3,-10 5,-21 7,-31 2,-11 2,-22 2,-33 0,-36 -8,-68 -22,-97 -15,-29 -36,-53 -62,-73 -26,-20 -57,-36 -92,-46 -36,-11 -74,-16 -114,-16 -11,0 -22,0 -33,1 -11,1 -21,2 -31,4 -16,-10 -24,-21 -24,-33 0,-12 6,-21 19,-26 13,-5 30,-9 51,-11 21,-2 45,-3 72,-4 27,-1 55,-2 83,-5 28,-3 56,-7 83,-13 27,-6 51,-16 72,-29 21,-13 38,-31 51,-54 13,-22 19,-51 19,-85 0,-32 -8,-64 -24,-95 -16,-31 -39,-58 -69,-82 -30,-24 -68,-43 -112,-58 -44,-15 -95,-22 -152,-22 -56,0 -105,5 -146,16 -41,11 -75,25 -102,42 -27,17 -47,37 -60,60 -13,23 -19,46 -19,71 0,32 9,58 28,80 18,21 44,38 78,51 -18,11 -31,24 -42,41 -10,17 -15,38 -15,64 0,11 2,22 6,34 4,12 10,23 18,35 8,11 18,22 30,32 12,10 26,19 43,27 -37,20 -67,46 -89,79 -22,33 -33,70 -33,114 0,36 8,68 23,97 15,29 36,53 63,73 27,20 58,36 94,46 36,11 75,16 117,16 61,0 115,-12 162,-35 h 216 z M 8321,438 c 0,7 1,14 4,20 3,6 6,12 11,16 5,5 10,8 16,11 6,3 13,4 20,4 7,0 14,-1 20,-4 6,-3 12,-6 16,-11 5,-5 8,-10 11,-16 3,-6 4,-13 4,-20 0,-7 -1,-14 -4,-20 -3,-6 -6,-12 -11,-16 -5,-5 -10,-8 -16,-11 -6,-3 -13,-4 -20,-4 -7,0 -14,1 -20,4 -6,3 -12,6 -16,11 -5,5 -8,10 -11,16 -2,7 -4,13 -4,20 z m -205,14 c 29,0 50,10 64,29 14,19 21,48 21,85 0,37 -7,66 -21,85 -14,19 -35,29 -64,29 -29,0 -51,-10 -65,-30 -14,-20 -21,-48 -21,-85 0,-37 7,-65 21,-85 14,-19 35,-28 65,-28 z m 0,292 c 26,0 49,-4 70,-13 21,-9 39,-20 54,-35 15,-15 27,-34 35,-56 8,-22 12,-47 12,-74 0,-27 -4,-52 -12,-74 -8,-22 -20,-41 -35,-56 -15,-16 -33,-27 -54,-36 -21,-9 -44,-13 -70,-13 -26,0 -49,4 -71,13 -22,9 -39,20 -54,36 -15,16 -27,34 -35,56 -8,22 -12,47 -12,74 0,27 4,52 12,74 8,22 20,41 35,56 15,15 33,27 54,35 21,8 45,13 71,13 z m -208,-78 c -2,-3 -5,-6 -7,-7 -2,-2 -6,-3 -10,-3 -4,0 -8,1 -13,4 -5,3 -9,6 -15,9 -6,3 -12,6 -20,9 -8,3 -17,4 -29,4 -15,0 -27,-3 -38,-8 -11,-5 -20,-13 -28,-23 -7,-10 -13,-22 -16,-36 -3,-14 -5,-30 -5,-48 0,-18 2,-35 6,-49 4,-14 10,-27 17,-36 7,-10 16,-17 27,-22 11,-5 23,-8 36,-8 13,0 24,2 32,5 8,3 15,7 21,11 6,4 11,8 15,11 4,3 9,5 14,5 7,0 12,-3 15,-8 l 24,-30 c -9,-11 -19,-20 -30,-27 -11,-7 -22,-13 -34,-18 -12,-4 -24,-7 -36,-9 -12,-2 -24,-3 -37,-3 -21,0 -42,4 -60,12 -19,8 -35,20 -50,35 -14,15 -25,34 -34,56 -9,22 -12,47 -12,76 0,25 4,49 11,71 7,22 18,41 32,56 14,16 32,28 53,37 21,9 45,14 72,14 26,0 49,-4 68,-13 19,-9 37,-20 53,-36 z m -316,73 V 392 h -84 v 347 z m 11,101 c 0,-7 -1,-14 -4,-20 -3,-6 -7,-12 -12,-17 -5,-5 -11,-9 -17,-11 -7,-3 -14,-4 -21,-4 -7,0 -14,1 -20,4 -6,3 -12,7 -17,11 -5,5 -9,10 -11,17 -3,6 -4,13 -4,20 0,7 1,14 4,21 3,7 7,12 11,17 5,5 10,8 17,11 6,3 13,4 20,4 7,0 14,-1 21,-4 7,-3 12,-7 17,-11 5,-5 9,-10 12,-17 3,-7 4,-14 4,-21 z m -164,54 V 392 h -83 V 894 Z M 7071,482 c 9,-11 20,-20 31,-24 11,-5 23,-7 35,-7 13,0 24,2 35,7 10,5 19,12 26,22 7,10 13,22 17,37 4,15 6,33 6,55 0,38 -6,66 -19,83 -13,17 -31,25 -54,25 -16,0 -30,-4 -42,-11 -12.01,-7 -23,-18 -34,-31 V 482 Z m 0,214 c 14,15 29,26 46,35 17,9 36,13 58,13 20,0 38,-4 54,-12 16,-8 30,-19 41,-34 11,-15 20,-33 26,-54 6,-21 9,-44 9,-71 0,-28 -3,-54 -10,-77 -7,-23 -17,-43 -30,-59 -13,-16 -29,-29 -47,-38 -18,-9 -38,-14 -61,-14 -11,0 -21,1 -29,3 -9,2 -17,5 -24,9 -7,4 -14,8 -20,14 -6,6 -12,12 -18,18 l -4,-23 c -1,-6 -4,-10 -7,-13 -3,-3 -8,-4 -13,-4 h -55 v 502 h 83 V 696 Z m -149,43 V 392 h -51 c -11,0 -18,5 -21,15 l -6,28 c -14,-14 -30,-26 -47,-35 -17,-9 -37,-13 -60,-13 -19,0 -36,3 -50,10 -15,6 -27,15 -37,27 -10,12 -17,26 -22,42 -5,16 -8,34 -8,53 v 220 h 83 V 519 c 0,-21 5,-38 15,-49 10,-12 24,-17 44,-17 14,0 28,3 41,10 13,7 25,15 36,27 v 251 h 83 z M 6340,482 c 9,-11 20,-20 31,-24 11,-5 23,-7 36,-7 13,0 24,2 34,7 10,5 19,12 26,22 7,10 13,22 16,37 3,15 6,32 6,52 0,20 -2,37 -5,52 -3,14 -8,25 -14,34 -6,9 -13,15 -22,19 -9.01,4 -19.01,6 -30,6 -17,0 -32,-4 -44.01,-11 C 6362,662 6350,651 6340,638 V 482 Z m -4,210 c 14,16 30,29 48,39 18,10 39,15 63,15 19,0 36,-4 52,-12 16,-8 29,-19 41,-34 12,-15 20,-33 26,-55 6,-22 9,-47 9,-75 0,-26 -3,-50 -10,-72 -7,-22 -17,-41 -30,-57 -13,-16 -29,-29 -47,-38 -18,-9 -39,-14 -62,-14 -19,0 -36,3 -50,9 -14,6 -26,14 -37,25 V 281 h -83 v 460 h 51 c 11,0 18,-5 21,-15 z m -148,-21 c -2,-4 -5,-6 -7,-8 -2,-2 -6,-2 -9,-2 -4,0 -8,1 -13,3 -5,2 -10,5 -16,8 -6,3 -13,5 -21,8 -8,2 -17,3 -28,3 -16,0 -29,-3 -39,-10 -9,-7 -14,-16 -14,-27 0,-7 2,-14 7,-19 5,-5 11,-10 19,-13 8,-4 17,-7 27,-10 10,-3 20,-6 31,-10 11,-4 21,-8 31,-12 10,-5 19,-10 27,-18 8,-7 14,-16 19,-26 5,-10 7,-22 7,-36 0,-17 -3,-32 -9,-46 -6,-14 -15,-26 -27,-36 -12,-10 -26,-18 -43,-24 -17,-6 -37,-9 -60,-9 -12,0 -24,1 -35,3 -11,2 -22,5 -33,9 -10,4 -20,8 -29,14 -9,5 -17,11 -23,17 l 19,32 c 2,4 5,7 9,9 3,2 8,3 13,3 5,0 10,-1 15,-4 5,-3 10,-6 16,-9 6,-3 13,-7 21,-9 8,-2 19,-4 31,-4 10,0 18,1 25,4 7,2 13,5 18,9 5,4 8,8 10,13 2,5 3,10 3,16 0,8 -2,15 -7,20 -5,5 -11,10 -19,14 -8,4 -17,7 -27,10 -10,3 -21,6 -31,10 -11,4 -21,8 -31,13 -10,5 -19,11 -27,18 -8,7 -14,17 -19,27 -5,11 -7,24 -7,39 0,14 3,28 8,41 6,13 14,24 25,34 11,10 25,17 41,23 16,6 35,9 57,9 24,0 45.99,-4 65,-12 20,-8 35.99,-18 49,-31 z m -332,-65 c 0,11 -2,21 -5,31 -3,10 -8,18 -14,25 -6,7 -14,13 -23,17 -9,4 -20,6 -33,6 -24,0 -43,-7 -57,-21 -14,-14 -23,-33 -27,-58 z m -159,-51 c 1,-18 5,-33 9,-46 5,-13 11,-24 20,-32 8,-8 18,-15 29,-19 11,-4 23,-6 37,-6 14,0 25,2 35,5 10,3 18,7 26,10 7,4 14,7 19,10 5,3 11,5 16,5 7,0 12,-3 16,-8 l 24,-30 c -9,-11 -20,-20 -31,-27 -11,-7 -23,-13 -36,-18 -12,-4 -25,-7 -38,-9 -13,-2 -25,-3 -38,-3 -24,0 -46,4 -67,12 -21,8 -39,20 -54,35 -15,16 -27,35 -36,58 -9,23 -13,50 -13,80 0,24 4,46 11,67 8,21 19,39 33,54 14,15 32,28 52,37 21,9 44,14 70,14 22,0 42,-3 60,-10 18,-7 34,-17 48,-31 13,-13 24,-30 31,-49 8,-19 11,-42 11,-67 0,-13 -1,-21 -4,-25 -3,-4 -8,-7 -16,-7 h -214 v 0"
         style="fill:#0b7288;fill-opacity:1;fill-rule:nonzero;stroke:none"
         transform="matrix(0.13333333,0,0,-0.13333333,0,320)" />
    </g>
  </g>
</svg>
